# xmcd
#
# Track frame offsets:
# 150
# 13175
# 26980
# 40170
# 58177
# 74107
# 86980
# 101490
# 124875
# 137750
# 158895
# 174532
# 188840
# 204490
# 221995
# 234967
#
# Disc length: 3307 seconds
#
#
# Revision: 3
# Processed by: cddbd v1.5.1PL0 Copyright (c) Steve Scherf et al.
# Submitted via: FreeRIP 2.941 
#
DISCID=f50ce910
DTITLE=Muddy Waters - Louisiana Blues
DYEAR=1900
DGENRE=
TTITLE0=Forty Days And Fourty Nights
TTITLE1=I'm Ready
TTITLE2=Mannish Boy
TTITLE3=My Home Is In The Delta
TTITLE4=Long Distance
TTITLE5=Louisiana Blues
TTITLE6=Good Morning School Girl
TTITLE7=My Captain
TTITLE8=I'm Your Hoochie Coochie Man
TTITLE9=Cold Weather Blues
TTITLE10=Big Leg Woman
TTITLE11=You Gonna Need My Help
TTITLE12=Country Boy
TTITLE13=Feel Like Going Home
TTITLE14=I Just Wanna Make Love To You
TTITLE15=She Moves Me
EXTD=(C) 1990
EXTT0=
EXTT1=
EXTT2=
EXTT3=
EXTT4=
EXTT5=
EXTT6=
EXTT7=
EXTT8=
EXTT9=
EXTT10=
EXTT11=
EXTT12=
EXTT13=
EXTT14=
EXTT15=
PLAYORDER=
